# xmcd
#
# Track frame offsets: 
#        150
#        14510
#        30662
#        44385
#        57892
#        69480
#        80995
#        102330
#        116135
#        127315
#        142067
#        152552
#        171435
#        192067
#        210842
#        221635
#        236810
#        246845
#        257287
#        269857
#
# Disc length: 3722 seconds
#
# Revision: 0
# Processed by: cddbd v1.5.2PL0 Copyright (c) Steve Scherf et al.
# Submitted via: ExactAudioCopyFreeDBPlugin 1.0
#
DISCID=330e8814
DTITLE=ミシェル・ベロフ - ドビュッシー-ピアノ作品全集 Disc2
DYEAR=2007
DGENRE=Classical
TTITLE0=前奏曲集第2巻 I-霧
TTITLE1=前奏曲集第2巻 II-枯葉
TTITLE2=前奏曲集第2巻 III-ビーノの門
TTITLE3=前奏曲集第2巻 IV-妖精はすてきな踊り子
TTITLE4=前奏曲集第2巻 V-ヒースの茂る荒れ地
TTITLE5=前奏曲集第2巻 VI-変わり者のラヴィーヌ将軍
TTITLE6=前奏曲集第2巻 VII-月光のふりそそぐ露台
TTITLE7=前奏曲集第2巻 VIII-水の精
TTITLE8=前奏曲集第2巻 IX-ピクウィック卿をたたえて
TTITLE9=前奏曲集第2巻 X-カノープ
TTITLE10=前奏曲集第2巻 XI-交替する3度
TTITLE11=前奏曲集第2巻 XII-花火
TTITLE12=レントよりおそく
TTITLE13=英雄の子守歌
TTITLE14=6つの古代碑銘(ピアノ独奏版) I-夏の風の神のパンの加護を祈るために
TTITLE15=6つの古代碑銘(ピアノ独奏版) II-無名の墓のために
TTITLE16=6つの古代碑銘(ピアノ独奏版) III-夜の幸いならんために
TTITLE17=6つの古代碑銘(ピアノ独奏版) IV-カスタネットをもつ舞姫のために
TTITLE18=6つの古代碑銘(ピアノ独奏版) V-エジプト女のために
TTITLE19=6つの古代碑銘(ピアノ独奏版) VI-雨の朝に感謝するために
EXTD=
EXTT0=
EXTT1=
EXTT2=
EXTT3=
EXTT4=
EXTT5=
EXTT6=
EXTT7=
EXTT8=
EXTT9=
EXTT10=
EXTT11=
EXTT12=
EXTT13=
EXTT14=
EXTT15=
EXTT16=
EXTT17=
EXTT18=
EXTT19=
PLAYORDER=
